<svg width="30" height="50" viewBox="0 0 30 50" fill="none" xmlns="http://www.w3.org/2000/svg">
<path d="M29.6569 23.619L15.8293 0.572168C15.6096 0.205762 15.3115 0 15.0007 0H1.17318C0.132907 0 -0.393148 2.10459 0.344547 3.33428L13.3435 25L0.344547 46.6657C-0.391448 47.8926 0.13068 50 1.17318 50H15.0007C15.3115 50 15.6096 49.7942 15.8293 49.428L29.6569 26.3812C30.1142 25.619 30.1146 24.3816 29.6569 23.619ZM14.5154 46.0938H4.0022L15.8293 26.3812C16.2866 25.6189 16.287 24.3816 15.8293 23.619L4.0022 3.90625H14.5153L27.1711 25L14.5154 46.0938Z" fill="url(#paint0_linear)"/>
<defs>
<linearGradient id="paint0_linear" x1="0" y1="25" x2="30" y2="25" gradientUnits="userSpaceOnUse">
<stop stop-color="#6B48FF"/>
<stop offset="1" stop-color="#1EE3CF"/>
</linearGradient>
</defs>
</svg>
